<?xml version="1.0" encoding="utf-8"?>
<!-- Generator: Adobe Illustrator 23.0.6, SVG Export Plug-In . SVG Version: 6.00 Build 0)  -->
<svg version="1.1"
	 id="svg29302" inkscape:version="0.48.2 r9819" sodipodi:docname="New document 16" xmlns:cc="http://creativecommons.org/ns#" xmlns:dc="http://purl.org/dc/elements/1.1/" xmlns:inkscape="http://www.inkscape.org/namespaces/inkscape" xmlns:rdf="http://www.w3.org/1999/02/22-rdf-syntax-ns#" xmlns:sodipodi="http://sodipodi.sourceforge.net/DTD/sodipodi-0.dtd" xmlns:svg="http://www.w3.org/2000/svg"
	 xmlns="http://www.w3.org/2000/svg" xmlns:xlink="http://www.w3.org/1999/xlink" x="0px" y="0px" viewBox="0 0 935.2 575.8"
	 style="enable-background:new 0 0 935.2 575.8;" xml:space="preserve">
<style type="text/css">
	.st0{fill:#006FCF;}
	.st1{fill:#FFFFFF;}
</style>
<path class="st0" d="M935.5,312.3V0.1H0.5v576.8h935V408.6C933.4,408.6,935.5,312.3,935.5,312.3"/>
<path class="st1" d="M821,290.2h70.8V126.1h-77.1v22.8l-14.6-22.8h-66.6v29.1L721,126.1H612.7c-4.2,0-10.4,0-14.6,0
	c-4.2,0-8.3,2.1-12.5,2.1c-4.2,0-6.2,2.1-10.4,4.2c-4.2,2.1-6.2,2.1-10.4,4.2v-4.2v-6.2H212.9l-10.4,27l-10.4-27h-83.3v29.1
	l-12.5-29.1H29.7L0.5,196.7v93.5h47.9l8.3-22.8h16.7l8.3,22.8h366.5v-20.8l14.6,20.8h102V286v-8.3c2.1,2.1,6.2,2.1,8.3,4.2
	c2.1,2.1,6.2,2.1,8.3,4.2c4.2,2.1,8.3,2.1,12.5,2.1c4.2,0,10.4,0,14.6,0H669l8.3-22.8H694l8.3,22.8h102v-20.8L821,290.2z
	 M935.5,497.9V344.2H362.9l-14.6,20.8l-14.6-20.8H167.1v164.1h166.6l14.6-20.8l14.6,20.8H467v-35.3h-4.2c14.6,0,27.1-2.1,37.5-6.2
	v43.6h75v-20.8l14.6,20.8h310.3C912.6,506.2,925.1,504.1,935.5,497.9L935.5,497.9z"/>
<path class="st0" d="M900.1,458.4h-56.2v22.8H898c22.9,0,37.5-14.5,37.5-35.3c0-20.8-12.5-31.2-33.3-31.2h-25
	c-6.2,0-10.4-4.2-10.4-10.4S871,394,877.2,394h47.9l10.4-22.8h-56.2c-22.9,0-37.5,14.5-37.5,33.2c0,20.8,12.5,31.2,33.3,31.2h25
	c6.2,0,10.4,4.2,10.4,10.4C912.6,454.2,908.5,458.4,900.1,458.4L900.1,458.4z M798.1,458.4h-56.2v22.8H796
	c22.9,0,37.5-14.5,37.5-35.3c0-20.8-12.5-31.2-33.3-31.2h-25c-6.2,0-10.4-4.2-10.4-10.4s4.2-10.4,10.4-10.4h47.9l10.4-22.8h-56.2
	c-22.9,0-37.5,14.5-37.5,33.2c0,20.8,12.5,31.2,33.3,31.2h25c6.2,0,10.4,4.2,10.4,10.4C810.6,454.2,804.3,458.4,798.1,458.4
	L798.1,458.4z M725.2,391.9v-22.8h-87.5v110.1h87.5v-22.8h-62.5v-22.8h60.4v-22.8h-60.4v-20.8h62.5
	C725.2,389.9,725.2,391.9,725.2,391.9z M583.6,391.9c10.4,0,14.6,6.2,14.6,12.5c0,6.2-4.2,12.5-14.6,12.5h-31.2v-27L583.6,391.9
	L583.6,391.9z M552.4,439.7h12.5l33.3,39.5h31.2l-37.5-41.5c18.7-4.2,29.2-16.6,29.2-33.2c0-20.8-14.6-35.3-37.5-35.3h-58.3v110.1
	h25L552.4,439.7L552.4,439.7z M485.7,406.5c0,8.3-4.2,14.5-14.6,14.5h-33.3v-29.1h31.2C479.5,391.9,485.7,398.2,485.7,406.5
	L485.7,406.5z M412.8,369.1v110.1h25v-37.4h33.3c22.9,0,39.6-14.5,39.6-37.4c0-20.8-14.6-37.4-37.5-37.4L412.8,369.1L412.8,369.1z
	 M375.3,479.2h31.2l-43.7-56.1l43.7-54h-31.2l-27.1,35.3l-27.1-35.3H290l43.7,54l-43.7,54h31.2l27.1-35.3L375.3,479.2z M281.6,391.9
	v-22.8h-87.5v110.1h87.5v-22.8h-62.5v-22.8h60.4v-22.8h-60.4v-20.8h62.5V391.9z M787.7,196.7l43.7,66.5h31.2V153.1h-25v72.7
	l-6.2-10.4l-39.6-62.3h-33.3v110.1h25v-74.8L787.7,196.7z M679.4,194.6l8.3-22.8l8.3,22.8l10.4,24.9H669L679.4,194.6z M723.1,263.2
	h27.1l-47.9-110.1H669l-47.9,110.1h27.1l10.4-22.8h54.1L723.1,263.2z M606.5,263.2L606.5,263.2l10.4-22.8h-6.2
	c-18.7,0-29.2-12.5-29.2-31.2v-2.1c0-18.7,10.4-31.2,29.2-31.2h27.1v-22.8h-29.2c-33.3,0-52.1,22.8-52.1,54v2.1
	C556.5,242.4,575.3,263.2,606.5,263.2L606.5,263.2z M512.8,263.2h25v-49.8v-58.2h-25v56.1V263.2z M458.6,175.9
	c10.4,0,14.6,6.2,14.6,12.5c0,6.2-4.2,12.5-14.6,12.5h-31.2v-27L458.6,175.9L458.6,175.9z M427.4,223.7h12.5l33.3,39.5h31.2
	L467,221.6c18.7-4.2,29.2-16.6,29.2-33.2c0-20.8-14.6-35.3-37.5-35.3h-58.3v110.1h25L427.4,223.7L427.4,223.7z M381.6,175.9v-22.8
	h-87.5v110.1h87.5v-22.8h-62.5v-22.8h60.4v-22.8h-60.4v-20.8h62.5V175.9z M192.1,263.2H215l31.2-89.3v89.3h25V153.1h-41.6l-25,74.8
	l-25-74.8h-41.6v110.1h25v-89.3L192.1,263.2z M56.7,194.6l8.3-22.8l8.3,22.8l10.4,24.9H46.3L56.7,194.6z M100.5,263.2h27.1
	L79.6,153.1H48.4L0.5,263.2h27.1L38,240.3h54.1L100.5,263.2z"/>
</svg>
