<?xml version="1.0" encoding="utf-8"?>
<!-- Generator: Adobe Illustrator 23.0.3, SVG Export Plug-In . SVG Version: 6.00 Build 0)  -->
<svg version="1.1" xmlns="http://www.w3.org/2000/svg" xmlns:xlink="http://www.w3.org/1999/xlink" x="0px" y="0px"
	 viewBox="0 0 2500 741" style="enable-background:new 0 0 2500 741;" xml:space="preserve">
<style type="text/css">
	.st0{fill:#FFFFFF;}
	.st1{fill:#A6A6A6;}
	.st2{fill:url(#path64_1_);}
	.st3{fill:url(#path78_1_);}
	.st4{fill:url(#path88_1_);}
	.st5{fill:url(#path104_1_);}
</style>
<g id="Layer_1">
	<path class="st0" d="M2484.1,653.5c0,39.2-31.8,71-71,71c0,0,0,0-0.1,0H87.6c-39.2,0-71.1-31.7-71.1-71V87.6
		c0.1-39.3,31.9-71,71.1-71.1H2413c39.2,0,71.1,31.8,71.1,71l0,0V653.5L2484.1,653.5z"/>
	<path class="st1" d="M2413,741H87.6C39.3,741,0.1,701.8,0,653.5V87.6C0.1,39.2,39.3,0.1,87.6,0H2413c48.4,0.1,87.6,39.2,87.6,87.6
		v565.9C2500.7,701.7,2461.3,741,2413,741L2413,741z"/>
	<path d="M2484.1,653.5c0,39.2-31.8,71-71,71c0,0,0,0-0.1,0H87.6c-39.2,0-71.1-31.7-71.1-71V87.6c0.1-39.3,31.9-71,71.1-71.1H2413
		c39.2,0,71.1,31.8,71.1,71l0,0V653.5L2484.1,653.5z"/>
	<path id="path46" class="st0" d="M1267.4,401.1c-43.5,0-79.1,32.8-79.1,77.9c0,44.8,35.6,77.9,79.1,77.9
		c43.6,0,79.2-33.1,79.2-77.9C1346.6,433.9,1311,401.1,1267.4,401.1z M1267.4,526.3c-23.9,0-44.4-19.5-44.4-47.2
		c0-28.1,20.6-47.2,44.4-47.2s44.5,19.1,44.5,47.2C1311.9,506.8,1291.2,526.3,1267.4,526.3z M1094.7,401.1
		c-43.6,0-79.1,32.8-79.1,77.9c0,44.8,35.5,77.9,79.1,77.9s79.1-33.1,79.1-77.9C1173.8,433.9,1138.3,401.1,1094.7,401.1z
		 M1094.7,526.3c-23.9,0-44.5-19.5-44.5-47.2c0-28.1,20.6-47.2,44.5-47.2s44.4,19.1,44.4,47.2
		C1139.2,506.8,1118.6,526.3,1094.7,526.3z M889.3,425v33.1h80c-2.3,18.5-8.6,32.1-18.2,41.6c-11.7,11.4-29.9,24.2-61.8,24.2
		c-49.2,0-87.8-39.3-87.8-88s38.6-88,87.8-88c26.6,0,46,10.3,60.3,23.6l23.6-23.3c-20-18.9-46.6-33.4-83.9-33.4
		c-67.5,0-124.3,54.3-124.3,121s56.8,121,124.3,121c36.5,0,63.9-11.8,85.5-34c22.1-21.8,29-52.5,29-77.3c0-7.7-0.7-14.8-1.8-20.7
		C1001.9,425,889.3,425,889.3,425z M1729.3,450.7c-6.5-17.4-26.6-49.6-67.5-49.6c-40.6,0-74.3,31.6-74.3,77.9
		c0,43.7,33.4,77.9,78.2,77.9c36.2,0,57.1-21.8,65.7-34.5l-26.9-17.7c-9,13-21.2,21.6-38.8,21.6c-17.5,0-30.1-8-38.2-23.6
		l105.5-43.1C1732.9,459.6,1729.3,450.7,1729.3,450.7z M1621.8,476.6c-0.9-30.1,23.6-45.4,41.2-45.4c13.8,0,25.5,6.8,29.3,16.5
		L1621.8,476.6z M1536.1,552.2h34.7v-229h-34.7V552.2z M1479.3,418.5h-1.1c-7.8-9.1-22.6-17.4-41.5-17.4
		c-39.5,0-75.6,34.3-75.6,78.2c0,43.7,36.1,77.7,75.6,77.7c18.8,0,33.7-8.3,41.5-17.7h1.1v11.2c0,29.8-16.1,45.8-42.1,45.8
		c-21.2,0-34.3-15.1-39.7-27.8l-30.2,12.4c8.7,20.7,31.7,46.1,69.9,46.1c40.7,0,75-23.6,75-81.2v-140h-32.9L1479.3,418.5
		L1479.3,418.5z M1439.6,526.3c-23.9,0-43.9-19.8-43.9-47c0-27.5,20-47.5,43.9-47.5c23.5,0,42.1,20,42.1,47.5
		C1481.7,506.5,1463.2,526.3,1439.6,526.3z M1891.6,323.2h-82.9v229h34.6v-86.8h48.4c38.4,0,76.1-27.5,76.1-71.1
		C1967.7,350.7,1929.9,323.2,1891.6,323.2z M1892.5,433.6h-49.2v-78.5h49.2c25.8,0,40.5,21.2,40.5,39.3
		C1933.1,412.1,1918.3,433.6,1892.5,433.6z M2106.3,400.7c-25,0-51,10.9-61.6,35.1l30.7,12.7c6.6-12.7,18.8-16.8,31.6-16.8
		c17.9,0,36.1,10.6,36.4,29.5v2.4c-6.3-3.6-19.6-8.9-36.1-8.9c-33,0-66.7,18-66.7,51.5c0,30.7,27.1,50.5,57.5,50.5
		c23.3,0,36.1-10.4,44.2-22.4h1.2V552h33.4v-88C2176.7,423.4,2146,400.7,2106.3,400.7z M2102.1,526.2c-11.3,0-27.1-5.6-27.1-19.4
		c0-17.7,19.6-24.5,36.7-24.5c15.2,0,22.4,3.3,31.6,7.7C2140.6,511.2,2122.1,526.2,2102.1,526.2z M2298.4,405.7l-39.7,99.3h-1.2
		l-41.1-99.3h-37.3l61.7,138.8l-35.2,77.2h36.1l95.1-216H2298.4z M1986.7,552.2h34.7v-229h-34.7V552.2z"/>
	
		<linearGradient id="path64_1_" gradientUnits="userSpaceOnUse" x1="-321.238" y1="3732.0144" x2="-758.6367" y2="4169.4126" gradientTransform="matrix(0.7114 0 0 -0.7031 636.744 3199.8354)">
		<stop  offset="0" style="stop-color:#00A0FF"/>
		<stop  offset="6.599999e-03" style="stop-color:#00A1FF"/>
		<stop  offset="0.2601" style="stop-color:#00BEFF"/>
		<stop  offset="0.5122" style="stop-color:#00D2FF"/>
		<stop  offset="0.7604" style="stop-color:#00DFFF"/>
		<stop  offset="1" style="stop-color:#00E3FF"/>
	</linearGradient>
	<path id="path64" class="st2" d="M197.6,140.7c-5.4,5.6-8.6,14.4-8.6,25.8v405.2c0,11.4,3.1,20.1,8.6,25.8l1.3,1.2l229.8-227v-5.4
		L199,139.3L197.6,140.7z"/>
	
		<linearGradient id="path78_1_" gradientUnits="userSpaceOnUse" x1="-7.4336" y1="4026.22" x2="-638.0759" y2="4026.22" gradientTransform="matrix(0.7114 0 0 -0.7031 636.744 3199.8354)">
		<stop  offset="0" style="stop-color:#FFE000"/>
		<stop  offset="0.4087" style="stop-color:#FFBD00"/>
		<stop  offset="0.7754" style="stop-color:#FFA500"/>
		<stop  offset="1" style="stop-color:#FF9C00"/>
	</linearGradient>
	<path id="path78" class="st3" d="M505.2,447.4l-76.5-75.7v-5.4l76.6-75.7l1.7,1l90.7,51c25.9,14.5,25.9,38.3,0,52.9L507,446.4
		L505.2,447.4z"/>
	
		<linearGradient id="path88_1_" gradientUnits="userSpaceOnUse" x1="-459.7664" y1="3868.687" x2="-1052.9143" y2="4461.8354" gradientTransform="matrix(0.7114 0 0 -0.7031 636.744 3199.8354)">
		<stop  offset="0" style="stop-color:#FF3A44"/>
		<stop  offset="1" style="stop-color:#C31162"/>
	</linearGradient>
	<path id="path88" class="st4" d="M507,446.4L428.7,369L197.6,597.4c8.6,8.9,22.6,10,38.6,1.1L507,446.4"/>
	
		<linearGradient id="path104_1_" gradientUnits="userSpaceOnUse" x1="-916.3854" y1="3727.0703" x2="-651.5184" y2="3991.9348" gradientTransform="matrix(0.7114 0 0 -0.7031 636.744 3199.8354)">
		<stop  offset="0" style="stop-color:#32A071"/>
		<stop  offset="6.850000e-02" style="stop-color:#2DA771"/>
		<stop  offset="0.4762" style="stop-color:#15CF74"/>
		<stop  offset="0.8009" style="stop-color:#06E775"/>
		<stop  offset="1" style="stop-color:#00F076"/>
	</linearGradient>
	<path id="path104" class="st5" d="M507,291.6L236.2,139.5c-15.9-8.8-30-7.8-38.6,1.2L428.7,369L507,291.6z"/>
	<g>
		<path class="st0" d="M769.6,243V127.5H805c17.6,0,31.8,5.3,42.5,16c10.7,10.6,16.1,24.6,16.1,41.8c0,17.3-5.4,31.3-16.1,41.9
			C836.8,237.7,822.6,243,805,243H769.6z M784.5,141.7v87.1H805c13.4,0,24-3.8,31.8-11.5c7.7-7.7,11.6-18.4,11.6-32
			c0-13.6-3.9-24.2-11.6-31.9c-7.7-7.7-18.3-11.6-31.8-11.6H784.5z"/>
		<path class="st0" d="M896,243h-14.8V127.5H896V243z"/>
		<path class="st0" d="M990.5,212.2c0,10.1-3.7,18.2-11.1,24.4c-7.5,6-16.7,9-27.4,9c-9.6,0-18-2.8-25.3-8.4
			c-7.3-5.6-12.4-13.2-15.2-22.9l14.2-5.8c1,3.4,2.3,6.6,4,9.4c1.7,2.8,3.7,5.2,6.1,7.2c2.3,2,4.9,3.5,7.7,4.7
			c2.8,1.1,5.8,1.7,8.9,1.7c6.8,0,12.3-1.7,16.6-5.2c4.3-3.5,6.5-8.1,6.5-14c0-4.8-1.8-9-5.3-12.4c-3.3-3.3-9.6-6.6-18.7-9.7
			c-9.3-3.3-15-5.6-17.3-6.8c-12.3-6.2-18.4-15.4-18.4-27.6c0-8.5,3.4-15.8,10.2-21.8c6.9-6,15.3-9,25.3-9c8.8,0,16.5,2.3,22.9,6.8
			c6.5,4.4,10.8,10,12.9,16.6l-13.9,5.8c-1.3-4.3-3.8-7.9-7.7-10.7c-3.8-2.8-8.5-4.3-14-4.3c-5.8,0-10.7,1.6-14.7,4.8
			c-4,3-6,6.9-6,11.8c0,4,1.6,7.4,4.7,10.3c3.4,2.9,10.9,6.3,22.4,10.3c11.7,4,20.1,8.8,25.1,14.6
			C988,196.7,990.5,203.8,990.5,212.2z"/>
		<path class="st0" d="M1023.3,196.2V243h-14.8V127.5h39.4c10,0,18.5,3.3,25.5,10c7.1,6.7,10.6,14.8,10.6,24.4
			c0,9.8-3.5,18-10.6,24.5c-6.9,6.6-15.4,9.8-25.5,9.8H1023.3z M1023.3,141.7V182h24.8c5.9,0,10.8-2,14.7-6c4-4,6-8.7,6-14.2
			c0-5.4-2-10.1-6-14c-3.9-4.1-8.8-6.1-14.7-6.1H1023.3z"/>
		<path class="st0" d="M1210.9,185.3c0,17.1-5.7,31.4-17.1,42.9c-11.5,11.6-25.6,17.4-42.3,17.4c-16.8,0-30.9-5.8-42.3-17.4
			c-11.4-11.5-17.1-25.8-17.1-42.9c0-17.1,5.7-31.4,17.1-42.9c11.4-11.6,25.5-17.4,42.3-17.4c16.8,0,30.9,5.9,42.3,17.6
			C1205.2,154,1210.9,168.3,1210.9,185.3z M1107.3,185.3c0,13.3,4.2,24.4,12.6,33.1c8.5,8.7,19,13.1,31.6,13.1
			c12.6,0,23.1-4.4,31.5-13.1c8.5-8.6,12.7-19.6,12.7-33.1c0-13.4-4.3-24.5-12.7-33.1c-8.4-8.7-18.9-13.1-31.5-13.1
			c-12.6,0-23.1,4.4-31.6,13.1C1111.5,160.9,1107.3,171.9,1107.3,185.3z"/>
		<path class="st0" d="M1243.4,243h-14.8V127.5h18.1l56.2,89.9h0.6l-0.6-22.3v-67.6h14.8V243h-15.5l-58.7-94.2h-0.6l0.6,22.3V243z"
			/>
		<path class="st0" d="M1355.7,243h-14.8V127.5h14.8V243z"/>
		<path class="st0" d="M1378.9,243V127.5h41.8c9.1,0,17,3,23.6,9c6.6,5.9,9.8,13.4,9.8,22.4c0,11.4-5.2,19.4-15.7,24v0.6
			c5.9,1.9,10.6,5.3,14.2,10.1c3.5,4.8,5.3,10.2,5.3,16.4c0,9.5-3.4,17.3-10.3,23.6c-6.7,6.2-14.9,9.4-24.7,9.4H1378.9z
			 M1393.8,141.7V177h26.9c5.3,0,9.7-1.8,13.2-5.3c3.5-3.7,5.3-7.8,5.3-12.4c0-4.5-1.7-8.6-5.2-12.3c-3.4-3.5-7.7-5.3-12.7-5.3
			H1393.8z M1393.8,190.9v37.9h29.9c5.4,0,9.9-1.9,13.7-5.6c3.7-3.8,5.5-8.2,5.5-13.4c0-5.1-1.9-9.5-5.6-13.2
			c-3.8-3.8-8.5-5.6-14.2-5.6H1393.8z"/>
		<path class="st0" d="M1489.6,243h-14.8V127.5h14.8V243z"/>
		<path class="st0" d="M1577.7,243h-64.9V127.5h14.8v101.3h50V243z"/>
		<path class="st0" d="M1660.6,127.5v14.2H1608v36.6h47.4v13.9H1608v36.6h52.6V243h-67.4V127.5H1660.6z"/>
		<path class="st0" d="M1782.6,212.2c0,10.1-3.7,18.2-11.1,24.4c-7.5,6-16.7,9-27.4,9c-9.6,0-18-2.8-25.3-8.4
			c-7.3-5.6-12.4-13.2-15.2-22.9l14.2-5.8c1,3.4,2.3,6.6,4,9.4c1.7,2.8,3.7,5.2,6.1,7.2c2.3,2,4.9,3.5,7.7,4.7
			c2.8,1.1,5.8,1.7,8.9,1.7c6.8,0,12.3-1.7,16.6-5.2c4.3-3.5,6.5-8.1,6.5-14c0-4.8-1.8-9-5.3-12.4c-3.3-3.3-9.6-6.6-18.7-9.7
			c-9.3-3.3-15-5.6-17.3-6.8c-12.3-6.2-18.4-15.4-18.4-27.6c0-8.5,3.4-15.8,10.2-21.8c6.9-6,15.3-9,25.3-9c8.8,0,16.5,2.3,22.9,6.8
			c6.5,4.4,10.8,10,12.9,16.6l-13.9,5.8c-1.3-4.3-3.8-7.9-7.7-10.7c-3.8-2.8-8.5-4.3-14-4.3c-5.8,0-10.7,1.6-14.7,4.8
			c-4,3-6,6.9-6,11.8c0,4,1.6,7.4,4.7,10.3c3.4,2.9,10.9,6.3,22.4,10.3c11.7,4,20.1,8.8,25.1,14.6
			C1780.1,196.7,1782.6,203.8,1782.6,212.2z"/>
		<path class="st0" d="M1840.7,245.6c-12.8,0-23.1-4.2-31-12.6c-7.9-8.3-11.8-19.3-11.8-32.9v-72.6h14.8v73.3
			c0,9.5,2.5,16.9,7.4,22.4c4.9,5.5,11.8,8.2,20.5,8.2c8.7,0,15.5-2.7,20.5-8.2c4.9-5.5,7.4-13,7.4-22.4v-73.3h14.8v72.6
			c0,14-3.9,25.1-11.6,33.2C1864.1,241.5,1853.7,245.6,1840.7,245.6z"/>
	</g>
</g>
<g id="Layer_2">
</g>
</svg>
