<?xml version="1.0" encoding="utf-8"?>
<!-- Generator: Adobe Illustrator 23.0.6, SVG Export Plug-In . SVG Version: 6.00 Build 0)  -->
<svg version="1.1"
	 id="svg29302" xmlns:cc="http://creativecommons.org/ns#" xmlns:dc="http://purl.org/dc/elements/1.1/" xmlns:inkscape="http://www.inkscape.org/namespaces/inkscape" xmlns:rdf="http://www.w3.org/1999/02/22-rdf-syntax-ns#" xmlns:sodipodi="http://sodipodi.sourceforge.net/DTD/sodipodi-0.dtd" xmlns:svg="http://www.w3.org/2000/svg"
	 xmlns="http://www.w3.org/2000/svg" xmlns:xlink="http://www.w3.org/1999/xlink" x="0px" y="0px" viewBox="0 0 935.2 575.8"
	 style="enable-background:new 0 0 935.2 575.8;" xml:space="preserve">
<style type="text/css">
	.st0{fill:#FFFFFF;}
	.st1{fill:#6C6BBD;}
	.st2{fill:#D32011;}
	.st3{fill:#0099DF;}
	.st4{fill:#110F0D;}
</style>
<path id="path29362" inkscape:connector-curvature="0" class="st0" d="M-0.3,0.2h936v576h-936L-0.3,0.2z"/>
<g>
	<polygon class="st1" points="542.2,378.3 393,378.3 393,110.2 542.2,110.2 	"/>
	<path class="st2" d="M402.5,244.3c0-54.3,25.4-102.8,65.1-134.1c-29.1-22.8-65.5-36.4-105.4-36.4c-94.2,0-170.5,76.3-170.5,170.5
		S268,414.8,362.2,414.8c39.9,0,76.3-13.6,105.4-36.4C427.9,347.1,402.5,298.8,402.5,244.3"/>
	<path class="st3" d="M743.5,244.3c0,94.2-76.3,170.5-170.5,170.5c-39.9,0-76.3-13.6-105.4-36.4c39.7-31.3,65.1-79.7,65.1-134.1
		s-25.4-102.8-65.1-134.1c29.1-22.8,65.5-36.4,105.4-36.4C667.2,73.8,743.5,150.1,743.5,244.3"/>
	<path class="st4" d="M592.6,454.2c1.9,0,4.7,0.4,7.1,1.3l-3,9.3c-2.2-0.9-4.1-1.1-6.3-1.1c-6.5,0-9.7,4.1-9.7,11.6v25.2H571v-45.3
		h9.7v5.6C583.3,456.8,587,454.2,592.6,454.2L592.6,454.2z M556.2,464.3H540v20.5c0,4.5,1.5,7.5,6.5,7.5c2.6,0,5.8-0.9,8.6-2.6
		l2.8,8.4c-3,2.2-8,3.4-12.3,3.4c-11.6,0-15.7-6.3-15.7-16.8V464h-9.3v-8.8h9.3v-13.8h9.9v13.8H556v9.1H556.2z M430.1,474
		c1.1-6.5,5-11,12.1-11c6.3,0,10.3,3.9,11.4,11H430.1z M463.9,477.9c0-14-8.8-23.7-21.6-23.7c-13.4,0-22.6,9.7-22.6,23.7
		c0,14.4,9.7,23.7,23.3,23.7c6.9,0,13.1-1.7,18.5-6.3l-4.7-7.3c-3.9,3-8.6,4.7-13.1,4.7c-6.3,0-12.1-3-13.6-11h33.6
		C463.9,480.5,463.9,479.2,463.9,477.9L463.9,477.9z M507.2,466.9c-2.8-1.7-8.4-3.9-14-3.9c-5.4,0-8.6,1.9-8.6,5.4
		c0,3,3.4,3.9,7.8,4.5l4.7,0.6c9.9,1.5,15.7,5.6,15.7,13.6c0,8.6-7.5,14.9-20.7,14.9c-7.3,0-14.2-1.9-19.6-5.8l4.7-7.8
		c3.2,2.6,8.2,4.7,15.1,4.7c6.7,0,10.3-1.9,10.3-5.6c0-2.6-2.6-3.9-8-4.7l-4.7-0.6c-10.1-1.5-15.7-6-15.7-13.4
		c0-9.1,7.3-14.4,18.8-14.4c7.1,0,13.8,1.5,18.5,4.7L507.2,466.9L507.2,466.9z M628.6,463.5c-1.9,0-3.9,0.4-5.6,1.1
		c-1.7,0.6-3.2,1.7-4.5,3s-2.4,2.8-3,4.5s-1.1,3.7-1.1,5.8s0.4,4.1,1.1,5.8c0.6,1.7,1.7,3.2,3,4.5s2.8,2.4,4.5,3s3.7,1.1,5.6,1.1
		s3.9-0.4,5.6-1.1c1.7-0.6,3.2-1.7,4.5-3s2.4-2.8,3-4.5s1.1-3.7,1.1-5.8s-0.4-4.1-1.1-5.8s-1.7-3.2-3-4.5s-2.8-2.4-4.5-3
		C632.7,463.9,630.8,463.5,628.6,463.5L628.6,463.5z M628.6,454.2c3.4,0,6.7,0.6,9.7,1.9s5.6,2.8,7.8,5s3.9,4.7,5.2,7.5
		c1.3,3,1.9,6,1.9,9.5s-0.6,6.7-1.9,9.5c-1.3,2.8-3,5.4-5.2,7.5c-2.2,2.2-4.7,3.9-7.8,5c-3,1.3-6.3,1.7-9.7,1.7s-6.7-0.6-9.7-1.7
		c-3-1.3-5.6-2.8-7.8-5s-3.9-4.7-5.2-7.5c-1.3-3-1.9-6-1.9-9.5s0.6-6.7,1.9-9.5c1.3-2.8,3-5.4,5.2-7.5c2.2-2.2,4.7-3.9,7.8-5
		C621.9,454.6,625.1,454.2,628.6,454.2L628.6,454.2z M372.5,477.9c0-8,5.2-14.4,13.8-14.4c8.2,0,13.6,6.3,13.6,14.4
		s-5.6,14.4-13.6,14.4C377.9,492.4,372.5,485.9,372.5,477.9L372.5,477.9z M409.4,477.9v-22.6h-9.9v5.6c-3.2-4.1-7.8-6.7-14.2-6.7
		c-12.7,0-22.6,9.9-22.6,23.7s9.9,23.7,22.6,23.7c6.5,0,11.2-2.6,14.2-6.7v5.6h9.9V477.9z M353.8,500.5V472
		c0-10.8-6.9-17.9-17.9-17.9c-5.8,0-11.9,1.7-15.9,8c-3-5-8-8-14.9-8c-4.7,0-9.5,1.5-13.4,6.7v-5.6h-9.9v45.3h9.9v-25
		c0-7.8,4.3-12.1,11-12.1c6.5,0,9.9,4.3,9.9,11.9v25.2h9.9v-25c0-7.8,4.5-12.1,11-12.1c6.7,0,9.9,4.3,9.9,11.9v25.2H353.8
		L353.8,500.5z"/>
</g>
<g>
	<path d="M675,498c0,2.3-1.8,4.1-4.2,4.1c-2.3,0-4.2-1.8-4.2-4.1c0-2.3,1.9-4.1,4.2-4.1S675,495.7,675,498z M667.6,498
		c0,1.8,1.3,3.3,3.2,3.3c1.8,0,3.1-1.4,3.1-3.2c0-1.8-1.3-3.3-3.1-3.3S667.6,496.2,667.6,498z M670.1,500.1h-0.9V496
		c0.4-0.1,0.9-0.1,1.6-0.1c0.8,0,1.1,0.1,1.4,0.3c0.2,0.2,0.4,0.5,0.4,0.9s-0.3,0.8-0.8,0.9l0,0c0.4,0.1,0.6,0.4,0.7,1
		c0.1,0.6,0.2,0.9,0.3,1h-1c-0.1-0.1-0.2-0.5-0.3-1c-0.1-0.4-0.3-0.6-0.8-0.6h-0.4v1.7H670.1z M670.1,497.8h0.4
		c0.5,0,0.9-0.2,0.9-0.6s-0.3-0.6-0.9-0.6c-0.3,0-0.4,0-0.5,0.1L670.1,497.8L670.1,497.8z"/>
</g>
<g>
	<path class="st3" d="M725.9,349.9v-5.5h-2.1v-1.1h5.7v1.1h-2.1v5.5H725.9z"/>
	<path class="st3" d="M731.4,349.9v-6.6h2.2l1.3,4.5l1.3-4.5h2.2v6.6H737v-5.2l-1.4,5.2h-1.4l-1.4-5.2v5.2H731.4z"/>
</g>
</svg>
