<?xml version="1.0" encoding="utf-8"?>
<!-- Generator: Adobe Illustrator 23.0.6, SVG Export Plug-In . SVG Version: 6.00 Build 0)  -->
<svg version="1.1" xmlns="http://www.w3.org/2000/svg" xmlns:xlink="http://www.w3.org/1999/xlink" x="0px" y="0px"
	 viewBox="0 0 935.2 575.8" style="enable-background:new 0 0 935.2 575.8;" xml:space="preserve">
<style type="text/css">
	.st0{fill:#231F20;}
	.st1{fill:#FF5F00;}
	.st2{fill:#EB001B;}
	.st3{fill:#F79E1B;}
</style>
<g id="Layer_3">
	<path class="st0" d="M706.4,436.7v23.6c-3.1-3.9-7.9-6.7-14.5-6.7c-13,0-22.4,10.2-22.4,23.6c0,14.1,10.2,23.6,22.4,23.6
		c6.3,0,11.4-2.4,14.5-6.7v5.5h10.2v-22v-40.9H706.4z M693.8,492.1c-8.6,0-13.8-6.7-13.8-14.5s5.1-14.5,13.8-14.5
		c7.9,0,13.8,6.3,13.8,14.5C707.6,485.4,702.1,492.1,693.8,492.1z"/>
	<path class="st0" d="M614.8,455.2v5.1c-3.1-3.9-7.9-6.7-14.5-6.7c-13,0-22.4,10.2-22.4,23.6c0,14.1,10.2,23.6,22.4,23.6
		c6.3,0,11.4-2.4,14.5-6.7v5.5H625v-22v-22.4H614.8z M602.3,492.1c-8.6,0-13.8-6.7-13.8-14.5s5.1-14.5,13.8-14.5
		c7.9,0,13.8,6.3,13.8,14.5C616,485.4,610.5,492.1,602.3,492.1z"/>
	<path class="st0" d="M490.7,477.2c0.4-13.8-8.3-23.2-21.2-23.2c-13.4,0-22.4,9.4-22.4,23.6c0,14.5,9.4,23.6,23.2,23.6
		c6.7,0,13.4-1.6,18.5-6.3l-4.7-7.5c-3.5,3.1-8.6,4.7-13.4,4.7c-6.3,0-12.2-2.8-13.8-11.4h33.8C490.7,479.6,490.7,478.4,490.7,477.2
		z M457.6,473.7c0.8-6.7,4.7-11,11.8-11c6.3,0,10.6,3.9,11.8,11H457.6z"/>
	<path class="st0" d="M347.2,477.6v-22.4h-9.8v5.1c-3.1-3.9-7.9-6.7-14.5-6.7c-13,0-22.4,10.2-22.4,23.6c0,14.1,10.2,23.6,22.4,23.6
		c6.3,0,11.4-2.4,14.5-6.7v5.5h10.2v-22H347.2z M324,492.1c-8.6,0-13.8-6.7-13.8-14.5s5.1-14.5,13.8-14.5c7.9,0,13.8,6.3,13.8,14.5
		C337.8,485.4,332.3,492.1,324,492.1z"/>
</g>
<g id="Layer_1">
	<path class="st0" d="M532.7,477.6c0,13.8,9.4,23.6,24,23.6c6.7,0,11.4-1.6,16.5-5.1l-4.7-7.9c-3.5,2.8-7.5,3.9-12.2,3.9
		c-7.9,0-13.8-5.5-13.8-14.5c0-8.6,5.5-14.5,13.8-14.5c4.3,0,7.9,1.6,12.2,3.9l4.7-7.9c-4.7-3.9-9.4-5.1-16.5-5.1
		C542.5,454,532.7,463.8,532.7,477.6"/>
	<path class="st0" d="M660,454c-5.5,0-9,2.8-12.2,6.7v-5.5h-9.4v45.2h10.2v-25.1c0-7.5,3.1-11.8,9.4-11.8c2,0,3.9,0.4,5.9,1.2l3.1-9
		C664.7,454.4,662,454,660,454"/>
	<path class="st0" d="M395.9,458.3c-4.7-3.1-11.4-4.7-18.5-4.7c-11.8,0-18.9,5.5-18.9,14.5c0,7.1,5.5,12.2,15.7,13.4l4.7,0.8
		c5.1,0.8,7.9,2,7.9,4.7c0,3.5-3.5,5.5-10.6,5.5c-7.1,0-11.8-2-15.3-4.7l-4.3,7.5c5.1,3.9,12.2,5.9,19.6,5.9
		c13.4,0,20.8-5.9,20.8-14.9c0-7.9-5.9-12.2-15.7-13.8h-4.7c-4.7-0.4-7.9-1.6-7.9-4.7s3.1-5.1,8.3-5.1c5.5,0,11.4,2,14.1,3.9
		L395.9,458.3z"/>
	<path class="st0" d="M522.9,454c-5.5,0-9,2.8-12.2,6.7v-5.5h-9.4v45.2h10.2v-25.1c0-7.5,3.1-11.8,9.4-11.8c2,0,3.9,0.4,5.9,1.2
		l3.1-9C527.6,454.4,524.8,454,522.9,454"/>
	<path class="st0" d="M439.2,454.8h-16.1V441h-10.2v13.8h-9v8.6h9v20.8c0,10.6,3.9,16.9,15.7,16.9c4.3,0,9-1.2,12.6-3.5l-3.1-8.3
		c-2.8,1.6-5.9,2.4-8.6,2.4c-4.7,0-6.3-3.1-6.3-7.5v-20.4h16.1V454.8z"/>
	<path class="st0" d="M291.4,500v-28.3c0-11-6.7-18.1-17.7-18.1c-5.5,0-11.8,1.6-16.1,7.9c-3.1-5.1-7.9-7.9-14.9-7.9
		c-4.7,0-9.4,1.6-13.4,6.7v-5.5h-9.4V500h10.2v-25.1c0-7.9,4.3-12.2,11.4-12.2c6.3,0,10.2,4.3,10.2,12.2V500h10.2v-25.1
		c0-7.9,4.3-12.2,11.4-12.2c7.1,0,10.2,4.3,10.2,12.2V500H291.4z"/>
	<path class="st1" d="M542.1,378H393V109.9h149V378z"/>
	<g transform="matrix(1.25 0 0 -1.25 1064.5 698.59)">
		<path class="st2" d="M-529.5,363.6c0,43.7,20.4,82.4,51.9,107.2c-22.9,18.2-52.5,29.2-84.3,29.2c-75.1,0-136.4-61.3-136.4-136.4
			s61-136.4,136.4-136.4c31.8,0,61.3,11,84.3,29.2C-509.1,281.5-529.5,320.2-529.5,363.6"/>
	</g>
	<g transform="matrix(1.25 0 0 -1.25 1103.8 698.59)">
		<path class="st3" d="M-288.3,363.6c0-75.4-61-136.4-136.4-136.4c-31.8,0-61.3,11-84.3,29.2c31.8,25.1,51.9,63.8,51.9,107.2
			s-20.1,82.4-51.9,107.5c23.3,18.2,52.5,28.9,84.3,28.9C-349.6,500-288.3,438.7-288.3,363.6"/>
	</g>
</g>
<g id="Layer_2">
	<g>
		<path class="st3" d="M725.9,349.9v-5.5h-2.1v-1.1h5.7v1.1h-2.1v5.5H725.9z"/>
		<path class="st3" d="M731.4,349.9v-6.6h2.2l1.3,4.5l1.3-4.5h2.2v6.6H737v-5.2l-1.4,5.2h-1.4l-1.4-5.2v5.2H731.4z"/>
	</g>
	<g>
		<path d="M737,498c0,2.3-1.8,4.1-4.2,4.1c-2.3,0-4.2-1.8-4.2-4.1c0-2.3,1.9-4.1,4.2-4.1C735.2,493.9,737,495.7,737,498z M729.6,498
			c0,1.8,1.3,3.3,3.2,3.3c1.8,0,3.1-1.4,3.1-3.2c0-1.8-1.3-3.3-3.1-3.3S729.6,496.2,729.6,498z M732.2,500.1h-0.9V496
			c0.4-0.1,0.9-0.1,1.6-0.1c0.8,0,1.1,0.1,1.4,0.3c0.2,0.2,0.4,0.5,0.4,0.9c0,0.4-0.3,0.8-0.8,0.9v0c0.4,0.1,0.6,0.4,0.7,1
			c0.1,0.6,0.2,0.9,0.3,1h-1c-0.1-0.1-0.2-0.5-0.3-1c-0.1-0.4-0.3-0.6-0.8-0.6h-0.4V500.1z M732.2,497.8h0.4c0.5,0,0.9-0.2,0.9-0.6
			c0-0.4-0.3-0.6-0.9-0.6c-0.3,0-0.4,0-0.5,0.1V497.8z"/>
	</g>
</g>
</svg>
