<?xml version="1.0" encoding="utf-8"?>
<!-- Generator: Adobe Illustrator 22.1.0, SVG Export Plug-In . SVG Version: 6.00 Build 0)  -->
<svg version="1.1" id="Layer_2" xmlns="http://www.w3.org/2000/svg" xmlns:xlink="http://www.w3.org/1999/xlink" x="0px" y="0px"
	 viewBox="0 0 935.2 575.8" style="enable-background:new 0 0 935.2 575.8;" xml:space="preserve">
<style type="text/css">
	.st0{fill:#253B80;}
	.st1{fill:#179BD7;}
	.st2{fill:#222D65;}
</style>
<g>
	<path class="st0" d="M373,237.4h-41.5c-2.8,0-5.3,2-5.7,4.9l-16.8,106.4c-0.3,2.1,1.3,4,3.4,4h19.8c2.8,0,5.3-2,5.7-4.9l4.6-28.7
		c0.4-2.8,2.8-4.9,5.7-4.9h13.2c27.3,0,43.1-13.3,47.2-39.4c1.9-11.5,0.1-20.5-5.3-26.8C397.4,241,386.9,237.4,373,237.4z
		 M377.8,276.2c-2.3,14.9-13.7,14.9-24.6,14.9h-6.3l4.4-27.8c0.2-1.7,1.7-2.9,3.4-2.9h2.8c7.5,0,14.6,0,18.2,4.3
		C377.9,267.2,378.6,271,377.8,276.2z"/>
	<path class="st0" d="M497.1,275.8h-19.8c-1.7,0-3.2,1.2-3.4,2.9l-0.9,5.5l-1.4-2c-4.3-6.3-13.9-8.3-23.5-8.3
		c-22,0-40.7,16.7-44.4,40c-1.9,11.6,0.8,22.8,7.4,30.6c6,7.2,14.7,10.1,25,10.1c17.7,0,27.5-11.4,27.5-11.4l-0.9,5.5
		c-0.3,2.1,1.3,4,3.4,4H484c2.8,0,5.3-2,5.7-4.9l10.7-68.1C500.8,277.6,499.2,275.8,497.1,275.8z M469.4,314.4
		c-2,11.4-10.9,18.9-22.4,18.9c-5.8,0-10.4-1.9-13.3-5.4c-2.9-3.5-4.1-8.5-3.1-14c1.8-11.2,11-19.1,22.3-19.1
		c5.6,0,10.2,1.9,13.3,5.4C469,303.9,470.2,308.9,469.4,314.4z"/>
	<path class="st0" d="M603,275.8h-20c-1.9,0-3.7,1-4.8,2.5l-27.6,40.6l-11.7-39c-0.7-2.4-3-4.1-5.5-4.1h-19.6
		c-2.4,0-4.1,2.4-3.3,4.6l22,64.6L511.9,374c-1.6,2.3,0,5.4,2.8,5.4h19.9c1.9,0,3.7-0.9,4.7-2.4l66.4-95.9
		C607.4,278.8,605.7,275.8,603,275.8z"/>
	<path class="st1" d="M669.1,237.4h-41.6c-2.8,0-5.3,2-5.7,4.9l-16.8,106.4c-0.3,2.1,1.3,4,3.4,4h21.3c2,0,3.7-1.5,4-3.4l4.8-30.2
		c0.4-2.8,2.8-4.9,5.7-4.9h13.2c27.3,0,43.1-13.3,47.2-39.4c1.9-11.5,0.1-20.5-5.3-26.8C693.4,241,683,237.4,669.1,237.4z
		 M673.9,276.2c-2.3,14.9-13.7,14.9-24.6,14.9H643l4.4-27.8c0.2-1.7,1.7-2.9,3.4-2.9h2.8c7.5,0,14.6,0,18.2,4.3
		C674,267.2,674.7,271,673.9,276.2z"/>
	<path class="st1" d="M793.2,275.8h-19.8c-1.7,0-3.2,1.2-3.4,2.9l-0.9,5.5l-1.4-2c-4.3-6.3-13.9-8.3-23.5-8.3
		c-22,0-40.7,16.7-44.4,40c-1.9,11.6,0.8,22.8,7.4,30.6c6.1,7.2,14.7,10.1,25,10.1c17.7,0,27.5-11.4,27.5-11.4l-0.9,5.5
		c-0.3,2.1,1.3,4,3.4,4h17.9c2.8,0,5.3-2,5.7-4.9l10.7-68.1C796.9,277.6,795.3,275.8,793.2,275.8z M765.4,314.4
		c-1.9,11.4-10.9,18.9-22.4,18.9c-5.8,0-10.4-1.9-13.3-5.4c-2.9-3.5-4.1-8.5-3.1-14c1.8-11.2,11-19.1,22.3-19.1
		c5.6,0,10.2,1.9,13.3,5.4C765.1,303.9,766.3,308.9,765.4,314.4z"/>
	<path class="st1" d="M816.6,240.2l-17.1,108.4c-0.3,2.1,1.3,4,3.4,4h17.2c2.8,0,5.3-2,5.7-4.9l16.8-106.4c0.3-2.1-1.3-4-3.4-4H820
		C818.3,237.4,816.8,238.6,816.6,240.2z"/>
	<path class="st0" d="M136.6,373.3l3.2-20.2l-7.1-0.2H98.9l23.5-148.8c0.1-0.5,0.3-0.9,0.7-1.1c0.3-0.3,0.8-0.5,1.2-0.5h56.9
		c18.9,0,32,3.9,38.8,11.7c3.2,3.7,5.2,7.5,6.2,11.6c1.1,4.4,1.1,9.7,0.1,16l-0.1,0.5v4.1l3.2,1.8c2.7,1.5,4.8,3.1,6.4,5
		c2.8,3.1,4.5,7.1,5.2,11.8c0.7,4.8,0.5,10.6-0.7,17.1c-1.5,7.5-3.8,14-7,19.4c-2.9,4.9-6.7,8.9-11.1,12.1c-4.2,3-9.3,5.3-14.9,6.7
		c-5.5,1.5-11.8,2.1-18.6,2.1h-4.4c-3.2,0-6.3,1.1-8.7,3.2c-2.4,2.1-4,5-4.6,8.1l-0.3,1.8l-5.6,35.5l-0.2,1.3
		c-0.1,0.4-0.2,0.7-0.3,0.7c-0.2,0.2-0.4,0.2-0.6,0.2C164,373.3,136.6,373.3,136.6,373.3z"/>
	<path class="st1" d="M232.4,242.9L232.4,242.9L232.4,242.9c-0.2,1.1-0.3,2.2-0.6,3.3c-7.5,38.5-33.2,51.9-66,51.9h-16.7
		c-4,0-7.4,2.9-8.1,6.8l0,0l0,0l-8.5,54.2l-2.4,15.4c-0.4,2.6,1.6,5,4.2,5H164c3.5,0,6.5-2.5,7.1-6l0.3-1.5l5.6-35.4l0.3-2
		c0.6-3.5,3.5-6,7.1-6h4.4c28.7,0,51.2-11.6,57.7-45.4c2.8-14.1,1.3-25.9-5.9-34.2C238.3,246.6,235.6,244.6,232.4,242.9z"/>
	<path class="st2" d="M224.6,239.8c-1.1-0.3-2.4-0.7-3.6-0.9c-1.2-0.2-2.4-0.5-3.7-0.7c-4.5-0.7-9.4-1.1-14.7-1.1h-44.6
		c-1.1,0-2.1,0.2-3.1,0.7c-2,1-3.6,2.9-4,5.3l-9.5,60.1l-0.2,1.8c0.7-4,4-6.8,8.1-6.8h16.7c32.8,0,58.5-13.3,66-51.9
		c0.2-1.1,0.4-2.3,0.6-3.3c-1.9-1-4-1.9-6.2-2.6C225.7,240.1,225.1,240,224.6,239.8z"/>
	<path class="st0" d="M150.9,243.1c0.4-2.4,1.9-4.3,4-5.3c1-0.5,2-0.7,3.1-0.7h44.6c5.3,0,10.2,0.3,14.7,1.1
		c1.3,0.2,2.5,0.4,3.7,0.7c1.2,0.2,2.4,0.6,3.6,0.9c0.6,0.2,1.1,0.3,1.7,0.5c2.2,0.7,4.3,1.6,6.2,2.6c2.2-14.2,0-23.9-7.7-32.7
		c-8.5-9.7-23.8-13.8-43.4-13.8h-56.9c-4,0-7.4,2.9-8.1,6.9L92.6,353.6c-0.5,3,1.8,5.7,4.8,5.7h35.1l8.9-56L150.9,243.1z"/>
</g>
</svg>
