<?xml version="1.0" encoding="utf-8"?>
<!-- Generator: Adobe Illustrator 23.0.3, SVG Export Plug-In . SVG Version: 6.00 Build 0)  -->
<svg version="1.1" id="Layer_1" xmlns="http://www.w3.org/2000/svg" xmlns:xlink="http://www.w3.org/1999/xlink" x="0px" y="0px"
	 viewBox="0 0 431.7 149.4" style="enable-background:new 0 0 431.7 149.4;" xml:space="preserve">
<style type="text/css">
	.st0{fill:#FFFFFF;}
	.st1{fill:#686868;}
	.st2{fill:#CC262A;}
	.st3{fill:#444444;}
</style>
<g>
	<g>
		<path class="st0" d="M357.5,146.3H74.1c-39.4,0-71.6-32.2-71.6-71.6v0c0-39.4,32.2-71.6,71.6-71.6h283.4
			c39.4,0,71.6,32.2,71.6,71.6v0C429.2,114.1,396.9,146.3,357.5,146.3z"/>
		<path class="st1" d="M357.5,147.3H74.1c-40,0-72.6-32.6-72.6-72.6c0-40,32.6-72.6,72.6-72.6h283.4c40,0,72.6,32.6,72.6,72.6
			C430.2,114.8,397.6,147.3,357.5,147.3z M74.1,4.1C35.2,4.1,3.5,35.8,3.5,74.7s31.7,70.6,70.6,70.6h283.4
			c38.9,0,70.6-31.7,70.6-70.6S396.5,4.1,357.5,4.1H74.1z"/>
	</g>
	<g>
		<path class="st2" d="M412.1,75.4c0,30.7-24.9,55.6-55.6,55.6c-30.7,0-55.6-24.9-55.6-55.6c0-30.7,24.9-55.6,55.6-55.6
			C387.2,19.8,412.1,44.7,412.1,75.4z"/>
		<g>
			<path class="st0" d="M392.5,90.3l-6-4.2c-0.8-0.6-1.9-0.4-2.5,0.4l-2.7,4c-5.5,7.3-14.1,12-23.9,12c-0.3,0-1.6,0-1.9,0
				c-9.8,0-18.5-4.7-23.9-12l-2.7-4c-0.6-0.8-1.7-1-2.5-0.4l-6,4.2c-0.8,0.6-1,1.7-0.4,2.5l0,0l0,0c7,12.3,20.3,20.6,35.5,20.6
				c0.3,0,1.6,0,1.9,0c15.2,0,28.5-8.3,35.5-20.6l0,0l0,0C393.5,91.9,393.3,90.8,392.5,90.3z"/>
			<path class="st0" d="M369.3,37.5c-2.2,0-4,1.8-4,4l0,20.2c0,1.3-1.1,2.4-2.4,2.4c-1.3,0-2.4-1.1-2.4-2.4l0-20.2c0-2.2-1.8-4-4-4
				v0c0,0,0,0,0,0c0,0,0,0,0,0v0c-2.2,0-4,1.8-4,4l0,20.2c0,1.3-1.1,2.4-2.4,2.4c-1.3,0-2.4-1.1-2.4-2.4l0-20.2c0-2.2-1.8-4-4-4
				c-2.2,0-4,1.8-4,4v27.7c0,3.4,1.4,7.1,6.2,10.3c4.8,3.3,6.4,4.1,6.4,6.5v5.8c0,1.3,1,2.3,2.3,2.3h2h0h2c1.3,0,2.3-1,2.3-2.3v-5.8
				c0-2.4,1.6-3.2,6.4-6.5c4.8-3.3,6.2-6.9,6.2-10.3V41.5C373.4,39.3,371.6,37.5,369.3,37.5z"/>
		</g>
	</g>
	<g>
		<path class="st3" d="M55.1,60.8h7.5v2.4c2-1.9,4.2-2.9,6.5-2.9c2.6,0,4.4,1.1,5.4,3.2c1.1,2.1,1.6,4.6,1.6,7.4v10.7
			c0,3.4-0.6,6.1-1.8,8.2c-1.2,2.1-3.1,3.1-5.6,3.1c-2,0-4.1-1-6.1-2.8v12.8h-7.5V60.8z M68,86.2c0.4-1,0.6-2.5,0.6-4.3V70.5
			c0-1.6-0.2-2.9-0.6-3.8c-0.4-0.9-1.1-1.4-2.2-1.4c-1.1,0-2.2,0.5-3.2,1.4v20c1,0.7,2.1,1.1,3.3,1.1C66.9,87.7,67.6,87.2,68,86.2z"
			/>
		<path class="st3" d="M81,90.1c-1.7-1.9-2.5-4.6-2.5-8.2V71.3c0-3.6,0.8-6.3,2.5-8.2c1.7-1.9,4.2-2.8,7.6-2.8
			c3.4,0,5.9,0.9,7.6,2.8c1.7,1.9,2.5,4.6,2.5,8.2v10.6c0,3.6-0.8,6.3-2.5,8.2c-1.7,1.9-4.2,2.8-7.6,2.8C85.2,92.9,82.7,92,81,90.1z
			 M90.9,86.4c0.4-0.9,0.5-2.2,0.5-4V70.8c0-1.8-0.2-3.1-0.5-4c-0.4-0.9-1.1-1.4-2.2-1.4c-1.2,0-1.9,0.5-2.3,1.4
			c-0.4,0.9-0.5,2.2-0.5,4v11.7c0,1.8,0.2,3.1,0.5,4c0.4,0.9,1.1,1.3,2.3,1.3C89.8,87.8,90.5,87.3,90.9,86.4z"/>
		<path class="st3" d="M99.9,60.8h6.2l2.8,20.6l3.3-20.6h5.5l3.1,20.7l3-20.7h5.9l-5,31.7h-6.3l-3.5-20l-3.7,20h-6.5L99.9,60.8z"/>
		<path class="st3" d="M133.6,90c-1.6-2-2.5-4.9-2.5-8.7v-9.4c0-3.9,0.8-6.8,2.5-8.7c1.7-1.9,4.2-2.9,7.7-2.9c3.6,0,6.1,1,7.6,3
			c1.5,2,2.2,5,2.2,9.1v4.5h-12.6v6.2c0,1.5,0.2,2.6,0.7,3.3c0.5,0.7,1.2,1,2.2,1c0.9,0,1.6-0.3,2.1-1c0.4-0.7,0.6-1.7,0.6-3.1v-2.7
			h7V83c0,3.3-0.8,5.7-2.5,7.4c-1.6,1.7-4.1,2.5-7.3,2.5C137.9,92.9,135.3,91.9,133.6,90z M144.1,73.3v-3c0-1.6-0.2-2.8-0.6-3.5
			c-0.4-0.7-1.1-1.1-2.1-1.1c-1.1,0-1.8,0.4-2.2,1.2c-0.4,0.8-0.6,2.2-0.6,4.3v2.2H144.1z"/>
		<path class="st3" d="M154.2,60.8h7.5v4.9c1.1-1.9,2.1-3.2,3.2-4c1.1-0.8,2.3-1.2,3.7-1.2c0.5,0,0.9,0,1.2,0.1v7.7
			c-1.2-0.4-2.2-0.7-3.1-0.7c-2,0-3.6,1-5,3.1v21.8h-7.5V60.8z"/>
		<path class="st3" d="M173,90c-1.6-2-2.5-4.9-2.5-8.7v-9.4c0-3.9,0.8-6.8,2.5-8.7c1.7-1.9,4.2-2.9,7.7-2.9c3.6,0,6.1,1,7.6,3
			c1.5,2,2.2,5,2.2,9.1v4.5H178v6.2c0,1.5,0.2,2.6,0.7,3.3c0.5,0.7,1.2,1,2.2,1c0.9,0,1.6-0.3,2.1-1c0.4-0.7,0.6-1.7,0.6-3.1v-2.7h7
			V83c0,3.3-0.8,5.7-2.5,7.4c-1.6,1.7-4.1,2.5-7.3,2.5C177.3,92.9,174.7,91.9,173,90z M183.5,73.3v-3c0-1.6-0.2-2.8-0.6-3.5
			c-0.4-0.7-1.1-1.1-2.1-1.1c-1.1,0-1.8,0.4-2.2,1.2c-0.4,0.8-0.6,2.2-0.6,4.3v2.2H183.5z"/>
		<path class="st3" d="M194.8,90.2c-1.3-1.8-1.9-4.7-1.9-8.6v-9.7c0-3.6,0.6-6.4,1.8-8.5c1.2-2.1,3.1-3.2,5.8-3.2
			c2,0,3.9,0.8,5.7,2.5V48h7.5v44.4h-7.5v-2.2c-1.8,1.8-3.6,2.7-5.6,2.7C198,92.9,196.1,92,194.8,90.2z M206.2,86.7V66.4
			c-1-0.7-1.9-1-3-1c-1.9,0-2.8,1.7-2.8,5v11.8c0,1.8,0.2,3.2,0.6,4.1c0.4,1,1.2,1.5,2.2,1.5C204.2,87.8,205.2,87.4,206.2,86.7z"/>
		<path class="st3" d="M235.8,90.1v2.4h-7.4V48h7.4v15.1c2-1.9,4.2-2.9,6.5-2.9c2.6,0,4.4,1.1,5.4,3.2c1.1,2.1,1.6,4.6,1.6,7.4v10.7
			c0,3.4-0.6,6.1-1.8,8.2c-1.2,2.1-3,3.1-5.6,3.1C239.9,92.9,237.9,92,235.8,90.1z M241.3,86.2c0.4-1,0.5-2.5,0.5-4.3V70.5
			c0-1.6-0.2-2.9-0.6-3.8s-1.1-1.4-2.1-1.4c-1.1,0-2.2,0.4-3.3,1.3v20.1c1,0.7,2.1,1.1,3.3,1.1C240.2,87.7,241,87.2,241.3,86.2z"/>
		<path class="st3" d="M252.5,95.7c2,0,3.4-0.2,4.2-0.5c0.8-0.3,1.2-1,1.2-2c0-0.7-0.4-2.5-1.2-5.6l-7-26.8h7.2l4.1,20.9l3.6-20.9
			h7.2l-7.4,32.9c-0.6,2.7-1.8,4.6-3.5,5.7c-1.7,1.1-4.1,1.7-7,1.7h-1.4V95.7z"/>
	</g>
</g>
</svg>
