<?xml version="1.0" encoding="utf-8"?>
<!-- Generator: Adobe Illustrator 22.1.0, SVG Export Plug-In . SVG Version: 6.00 Build 0)  -->
<svg version="1.1"
	 id="svg29302" inkscape:version="0.48.2 r9819" sodipodi:docname="New document 16" xmlns:cc="http://creativecommons.org/ns#" xmlns:dc="http://purl.org/dc/elements/1.1/" xmlns:inkscape="http://www.inkscape.org/namespaces/inkscape" xmlns:rdf="http://www.w3.org/1999/02/22-rdf-syntax-ns#" xmlns:sodipodi="http://sodipodi.sourceforge.net/DTD/sodipodi-0.dtd" xmlns:svg="http://www.w3.org/2000/svg"
	 xmlns="http://www.w3.org/2000/svg" xmlns:xlink="http://www.w3.org/1999/xlink" x="0px" y="0px" viewBox="0 0 935.2 575.8"
	 style="enable-background:new 0 0 935.2 575.8;" xml:space="preserve">
<style type="text/css">
	.st0{fill:#135191;}
	.st1{fill:#FFFFFF;}
	.st2{fill:#FAB10B;}
</style>
<path id="path29362" inkscape:connector-curvature="0" class="st0" d="M-0.3,0.2h936v576h-936L-0.3,0.2z"/>
<path id="path19349" inkscape:connector-curvature="0" class="st1" d="M137.1,366.6h79v23.5h-49.5l-0.5,22h49v22.5h-49.5v22h49v23.5
	H136L137.1,366.6"/>
<path id="path19351" inkscape:connector-curvature="0" class="st1" d="M237.1,357.6h29l-0.5,122.6h-29L237.1,357.6"/>
<path id="path19353" inkscape:connector-curvature="0" class="st1" d="M343.1,428.7c0-8.5-4-16-13.5-16c-9,0-16,8-18,16H343.1z
	 M364.2,470.7c-10,8-24.5,12.5-38,12.5c-30,0-44-21.5-44-42.5c0-25,19-46,45-46c32,0,41.5,22,41.5,50.5h-57.5
	c0,6.5,4.5,17.5,20,17.5c10,0,16-3,23.5-8L364.2,470.7"/>
<path id="path19355" inkscape:connector-curvature="0" class="st1" d="M456.2,474.2c-8,5-21,8.5-31,8.5c-26.5,0-45.5-15-45.5-42
	c0-28,18.5-46,47.5-46c10,0,22,3,28,7l-9,18.5c-4.5-1.5-9-3-13.5-3c-14.5,0-24,8.5-24,22c0,11.5,9,21,21.5,21c5.5,0,11-2.5,15.5-4.5
	L456.2,474.2"/>
<path id="path19357" inkscape:connector-curvature="0" class="st1" d="M466.7,397.7h12.5l0.5-28h27.5l-0.5,28h23.5l-0.5,20.5h-23.5
	c0,11.5-1,23.5-1,30.5c0,7,2,10.5,8.5,10.5c4,0,7-2,10.5-4l6,19.5c-8.5,5-18.5,8-28.5,8c-23.5,0-24.5-14.5-24.5-33.5
	c0-10,0.5-20.5,0.5-31.5h-12.5L466.7,397.7"/>
<path id="path19359" inkscape:connector-curvature="0" class="st1" d="M545.2,397.7h29v11.5h0.5c4.5-7,10-14,21-14
	c3.5,0,6.5,0.5,9.5,1l-4,28c-2.5-1-6-1.5-10-1.5c-9.5,0-17,8-17,9.5l-0.5,47.5h-29L545.2,397.7"/>
<path id="path19361" inkscape:connector-curvature="0" class="st1" d="M656.8,461.2c14,0,18-11.5,18-22.5c0-10.5-4.5-22.5-18-22.5
	c-14,0-17.5,11.5-17.5,22.5C638.8,449.7,642.8,461.2,656.8,461.2z M656.8,394.7c31,0,46.5,19.5,46.5,44c0,25-16,44.5-46.5,44.5
	s-46.5-19.5-46.5-44.5C609.8,414.2,625.8,394.7,656.8,394.7"/>
<path id="path19363" inkscape:connector-curvature="0" class="st1" d="M719.3,397.7h29v9c6.5-6.5,16.5-12,27-12
	c17.5,0,27.5,9.5,27.5,32c0,17-0.5,35-0.5,53h-29c0.5-16,0.5-31.5,0.5-49c0-7-1.5-12-10.5-12c-4.5,0-11,4-15,7.5l-0.5,53.5h-29
	L719.3,397.7"/>
<path id="path19365" inkscape:connector-curvature="0" class="st1" d="M373.7,229.6l36-118.6h33l-36.5,118.6H373.7"/>
<path id="path19367" inkscape:connector-curvature="0" class="st1" d="M358.6,111l-29,50.5c-7.5,13-12,19.5-14,28h-0.5
	c0.5-10.5-1-23.5-1.5-31l-3-47.5h-55l-0.5,3c14,0,22,7,24.5,21l10.5,94h34l68.5-118.6h-34"/>
<path id="path19369" inkscape:connector-curvature="0" class="st1" d="M608.3,159.6c-0.5-9-0.5-21,0-28h-0.5c-2,6-10.5,23.5-14,32.5
	l-12.5,26h29L608.3,159.6L608.3,159.6z M612.3,229.6l-1-17.5h-40.5l-8.5,17.5h-35l64-118.6h43l11,118.6H612.3"/>
<path id="path19371" inkscape:connector-curvature="0" class="st1" d="M476.7,233.1c-23,0-38-7-49-13.5l15.5-23.5
	c10,5.5,17.5,11.5,35,11.5c5.5,0,11-1.5,14.5-6.5c4.5-8-1-12-13.5-19l-6.5-4c-18.5-13-27-25-18-46c5.5-13.5,20.5-23.5,45-23.5
	c17,0,33,7.5,42.5,14.5l-18,20.5c-9-7-16.5-11-25-11c-7,0-12,2.5-13.5,6c-3.5,6.5,1,11,10.5,17l7.5,5c23,14,28,29,22.5,43
	C516.2,227.6,496.7,233.1,476.7,233.1"/>
<path id="path19373" inkscape:connector-curvature="0" class="st2" d="M288.6,338.6c84-35.5,201.6-67.5,357.7-35.5l1.5-39
	c-164.6-18-283.1,34-359.7,70.5L288.6,338.6"/>
</svg>
