<?xml version="1.0" encoding="utf-8"?>
<!-- Generator: Adobe Illustrator 22.1.0, SVG Export Plug-In . SVG Version: 6.00 Build 0)  -->
<svg version="1.1" id="Layer_2" xmlns="http://www.w3.org/2000/svg" xmlns:xlink="http://www.w3.org/1999/xlink" x="0px" y="0px"
	 viewBox="0 0 935.2 575.8" style="enable-background:new 0 0 935.2 575.8;" xml:space="preserve">
<style type="text/css">
	.st0{fill:url(#SVGID_1_);}
</style>
<g>
	<g>
		
			<linearGradient id="SVGID_1_" gradientUnits="userSpaceOnUse" x1="165.8833" y1="288.7" x2="770.2199" y2="288.7" gradientTransform="matrix(1 0 0 -1 0 576.6142)">
			<stop  offset="0" style="stop-color:#1A1F5D"/>
			<stop  offset="1" style="stop-color:#132C94"/>
		</linearGradient>
		<path class="st0" d="M337.4,193.6l-46.9,130.6l-5.1-28.2l-17.1-85.3c0,0-1.7-17.1-23-17.1h-77.7l-1.7,3.4c0,0,23,5.1,51.2,21.3
			l42.7,163.9H311l78.5-188.6H337.4z M409.1,193.6l-30.7,189.5h49.5l30.7-189.5C458.6,193.6,409.1,193.6,409.1,193.6z M529.5,246.5
			c0-21.3,47.8-18.8,69.1-6.8l6.8-41c0,0-22.2-8.5-44.4-8.5c-24.8,0-82.8,10.2-82.8,62.3c0,48.6,68.3,49.5,68.3,75.1
			s-61.5,20.5-81.1,5.1l-7.7,42.7c0,0,22.2,10.2,55.5,10.2c34.1,0,84.5-17.1,84.5-64.9C598.6,272.1,529.5,267.9,529.5,246.5z
			 M730.9,193.6h-40.1c-18.8,0-23,13.7-23,13.7l-73.4,175.8h51.2l10.2-28.2h62.3l6,28.2h45.2L730.9,193.6z M670.3,316.5l25.6-70.8
			l14.5,70.8H670.3z"/>
	</g>
</g>
</svg>
